HIERARCHY
ROOT Hips
{
 OFFSET 0.000000 0.000000 0.000000
 CHANNELS 6 Xposition Yposition Zposition Yrotation Xrotation Zrotation
 JOINT Chest
 {
  OFFSET 0.000000 9.585900 0.002600
  CHANNELS 3 Yrotation Xrotation Zrotation
  JOINT Chest2
  {
   OFFSET 0.000000 9.601200 -0.005300
   CHANNELS 3 Yrotation Xrotation Zrotation
   JOINT Chest3
   {
    OFFSET 0.000000 9.561800 0.000000
    CHANNELS 3 Yrotation Xrotation Zrotation
    JOINT Chest4
    {
     OFFSET 0.000000 9.552100 0.000000
     CHANNELS 3 Yrotation Xrotation Zrotation
     JOINT Neck
     {
      OFFSET 0.000000 14.453000 0.000000
      CHANNELS 3 Yrotation Xrotation Zrotation
      JOINT Head
      {
       OFFSET 0.000000 8.936500 -0.011300
       CHANNELS 3 Yrotation Xrotation Zrotation
       End Site
       {
        OFFSET 0.000000 17.073600 -0.006000
       }
      }
     }
     JOINT RightCollar
     {
      OFFSET -2.921100 9.558500 0.000000
      CHANNELS 3 Yrotation Xrotation Zrotation
      JOINT RightShoulder
      {
       OFFSET -13.519700 0.000000 0.000000
       CHANNELS 3 Yrotation Xrotation Zrotation
       JOINT RightElbow
       {
        OFFSET 0.000000 -29.696600 0.000000
        CHANNELS 3 Yrotation Xrotation Zrotation
        JOINT RightWrist
        {
         OFFSET 0.000000 -24.004700 0.000000
         CHANNELS 3 Yrotation Xrotation Zrotation
         End Site
         {
          OFFSET 0.000000 -17.728500 0.000000
         }
        }
       }
      }
     }
     JOINT LeftCollar
     {
      OFFSET 2.921100 9.558500 0.000000
      CHANNELS 3 Yrotation Xrotation Zrotation
      JOINT LeftShoulder
      {
       OFFSET 13.519700 0.000000 0.000000
       CHANNELS 3 Yrotation Xrotation Zrotation
       JOINT LeftElbow
       {
        OFFSET 0.000000 -29.696600 0.000000
        CHANNELS 3 Yrotation Xrotation Zrotation
        JOINT LeftWrist
        {
         OFFSET 0.000000 -24.004700 0.000000
         CHANNELS 3 Yrotation Xrotation Zrotation
         End Site
         {
          OFFSET 0.000000 -17.728500 0.000000
         }
        }
       }
      }
     }
    }
   }
  }
 }
 JOINT RightHip
 {
  OFFSET -7.771700 -0.012900 -0.001300
  CHANNELS 3 Yrotation Xrotation Zrotation
  JOINT RightKnee
  {
   OFFSET 0.000000 -40.869800 0.001200
   CHANNELS 3 Yrotation Xrotation Zrotation
   JOINT RightAnkle
   {
    OFFSET 0.000000 -39.717900 0.002100
    CHANNELS 3 Yrotation Xrotation Zrotation
    JOINT RightToe
    {
     OFFSET 0.000000 -4.965400 11.033500
     CHANNELS 3 Yrotation Xrotation Zrotation
     End Site
     {
      OFFSET 0.000000 -1.423100 5.872300
     }
    }
   }
  }
 }
 JOINT LeftHip
 {
  OFFSET 7.771700 -0.012900 -0.001300
  CHANNELS 3 Yrotation Xrotation Zrotation
  JOINT LeftKnee
  {
   OFFSET 0.000000 -40.869800 0.001200
   CHANNELS 3 Yrotation Xrotation Zrotation
   JOINT LeftAnkle
   {
    OFFSET 0.000000 -39.717900 0.002100
    CHANNELS 3 Yrotation Xrotation Zrotation
    JOINT LeftToe
    {
     OFFSET 0.000000 -4.965400 11.033500
     CHANNELS 3 Yrotation Xrotation Zrotation
     End Site
     {
      OFFSET 0.000000 -1.423100 5.872300
     }
    }
   }
  }
 }
}
MOTION
Frames: 8
Frame Time: 0.008333
0.000000 85.388000 0.000000 0.000000 -5.767877 0.000000 0.000000 11.653817 0.000000 0.000000 -5.885947 0.000000 0.000000 -0.000000 0.000000 0.000000 -0.000000 0.000000 0.000000 12.528835 0.000000 0.000000 0.711642 0.000000 0.000000 -0.000000 0.000000 0.000000 0.000000 -90.000000 0.000000 -2.309062 0.000000 0.000000 2.309062 0.000000 0.000000 -0.000000 0.000000 0.000000 -0.000000 90.000000 0.000000 -2.309062 0.000000 0.000000 2.309062 0.000000 0.000000 8.520406 0.000000 0.000000 1.905762 0.000000 -0.000000 -4.658285 0.000000 0.000000 -0.000000 0.000000 0.000000 8.520406 0.000000 0.000000 1.905762 0.000000 -0.000000 -4.658285 0.000000 0.000000 -0.000000 0.000000
-45.290114 61.288512 12.904518 178.996358 -49.406660 -1.427464 2.886707 23.869956 1.444885 0.431300 3.696982 0.218108 0.728870 5.935205 0.375308 2.755417 20.078858 1.641184 0.002645 17.670525 1.359600 -0.422754 -2.965541 2.487450 2.652928 5.372440 4.964572 -2.710995 -8.116397 -14.387369 -119.199119 -71.878398 152.937398 23.351837 11.534608 4.220394 -9.184719 2.083325 0.120984 -10.758482 -8.669491 16.131494 -164.871843 -77.793453 149.559287 -2.346978 -5.746031 5.423392 2.600598 -17.958062 -7.127988 -0.079567 63.225704 -3.999839 1.266365 -10.357116 10.020109 0.009038 0.077559 0.013350 -12.371974 -14.675368 -1.371623 117.795681 87.053910 123.822302 -3.079859 -13.811435 -7.214537 0.629359 -13.248679 -6.051116
-45.225363 61.302404 12.897102 178.803051 -49.516626 -1.663918 3.157245 23.959484 1.847991 0.432193 3.699544 0.220018 0.731064 5.934289 0.375534 2.768295 20.071608 1.647039 0.039946 17.581222 1.367127 -0.348554 -3.141789 2.492940 2.625571 5.378595 5.015283 -2.639521 -8.150508 -14.421796 -119.112918 -71.893454 152.861701 23.360633 11.541986 4.210787 -9.175092 2.088210 0.134415 -10.743052 -8.624323 16.209510 -165.259251 -77.772473 149.968537 -2.335524 -5.758647 5.427590 2.535463 -17.827933 -6.680369 -0.107715 63.104563 -4.004029 1.298868 -10.261588 9.948668 0.001812 0.055727 0.000652 -12.317432 -14.341262 -0.952548 129.231874 86.810827 135.504802 -2.976406 -13.869934 -7.142836 0.594858 -13.419586 -6.301052
-45.197603 61.309920 12.894601 178.677202 -49.573543 -1.734347 3.286158 24.010535 2.014814 0.424832 3.704317 0.217004 0.739575 5.932768 0.376734 2.753935 20.074491 1.645021 0.101754 17.483843 1.371047 -0.272288 -3.317427 2.495109 2.648209 5.379142 5.043274 -2.596067 -8.217425 -14.385146 -118.988140 -71.950974 152.754107 23.346194 11.518807 4.204592 -9.141139 2.084600 0.164059 -10.730556 -8.591225 16.241703 -165.388304 -77.750261 150.117473 -2.325038 -5.767108 5.447863 2.498335 -17.758113 -6.491409 -0.077643 63.032502 -3.975140 1.324341 -10.206466 9.902216 0.000026 0.043905 -0.003936 -12.240985 -14.073318 -0.728987 138.661532 86.427906 145.193728 -2.947570 -13.923956 -7.086052 0.597395 -13.588298 -6.523409
-45.180238 61.316236 12.894189 178.561204 -49.612718 -1.755538 3.378538 24.052218 2.113959 0.442438 3.699121 0.222513 0.726340 5.939461 0.374357 2.758657 20.075079 1.645292 0.144935 17.391561 1.377878 -0.196687 -3.489567 2.494214 2.654771 5.385351 5.088789 -2.561602 -8.262175 -14.399682 -118.876282 -71.950315 152.657511 23.332401 11.499096 4.203291 -9.127970 2.083508 0.192965 -10.715990 -8.575881 16.249194 -165.391364 -77.751170 150.137624 -2.312099 -5.791220 5.467050 2.507144 -17.710935 -6.380115 -0.080483 62.985001 -3.954446 1.352962 -10.170557 9.864164 -0.000446 0.037329 -0.005636 -12.129293 -13.762977 -0.542295 145.950186 85.940723 152.773719 -2.936136 -14.034529 -7.042348 0.603455 -13.733241 -6.741307
-45.178862 61.318583 12.898016 178.515615 -49.609440 -1.741622 3.388707 24.057487 2.119323 0.456069 3.694533 0.225268 0.711225 5.950428 0.372083 2.761764 20.077233 1.644237 0.186578 17.301642 1.383046 -0.123299 -3.657315 2.490656 2.673722 5.377085 5.103323 -2.539623 -8.294629 -14.379754 -118.775027 -71.956166 152.568671 23.325183 11.487438 4.201081 -9.133845 2.088773 0.230028 -10.681382 -8.556873 16.255200 -165.406168 -77.762127 150.156056 -2.312114 -5.833591 5.501889 2.434992 -17.705315 -6.366054 0.045753 62.939813 -3.867691 1.377880 -10.140890 9.829562 -0.005171 0.031649 -0.007367 -12.016931 -13.529699 -0.445780 151.247706 85.381683 158.375560 -2.911243 -14.039229 -6.991995 0.592153 -13.917914 -6.970595
-45.179012 61.321827 12.902859 178.463895 -49.600120 -1.720229 3.394799 24.060335 2.116302 0.457214 3.695423 0.224999 0.715525 5.958655 0.376889 2.763785 20.081031 1.642957 0.225252 17.213023 1.385473 -0.054387 -3.822623 2.482989 2.689867 5.381535 5.151757 -2.510515 -8.341528 -14.406575 -118.546489 -71.919714 152.373766 23.363807 11.492987 4.192703 -9.129304 2.071696 0.233664 -10.661694 -8.501190 16.296557 -165.556774 -77.756646 150.316407 -2.319009 -5.848777 5.532536 2.359813 -17.714162 -6.360545 0.183497 62.908988 -3.769503 1.400382 -10.124166 9.796253 -0.003659 0.032998 -0.014127 -11.882594 -13.265625 -0.343355 155.127799 84.784155 162.571595 -2.879933 -14.038423 -6.942157 0.575626 -14.104491 -7.207403
-45.181512 61.326261 12.908248 178.428178 -49.586961 -1.701783 3.367912 24.081857 2.102025 0.480422 3.681052 0.224465 0.714316 5.967446 0.378048 2.766966 20.086285 1.642414 0.260126 17.124414 1.385421 0.008453 -3.987802 2.471842 2.705285 5.380068 5.196780 -2.490198 -8.379377 -14.455428 -118.366203 -71.879734 152.224206 23.378885 11.492975 4.187151 -9.130998 2.048004 0.233192 -10.637202 -8.485340 16.309071 -165.613822 -77.755205 150.377226 -2.317284 -5.836640 5.545286 2.293948 -17.722872 -6.382703 0.248132 62.874935 -3.704443 1.453767 -10.110293 9.753138 -0.029342 0.031230 -0.016728 -11.742865 -12.985940 -0.245581 157.874836 84.167169 165.639179 -2.852922 -14.002840 -6.885698 0.557055 -14.310116 -7.455494
